<svg xmlns="http://www.w3.org/2000/svg" viewBox="0 0 900 400">
  <defs>
    <linearGradient id="bg2" x1="0" y1="0" x2="1" y2="1">
      <stop offset="0%" stop-color="#5a2700"/>
      <stop offset="50%" stop-color="#7a360a"/>
      <stop offset="100%" stop-color="#5a2700"/>
    </linearGradient>
    <linearGradient id="h1" x1="0" y1="0" x2="0" y2="1">
      <stop offset="0%" stop-color="rgba(255,255,255,0.12)"/>
      <stop offset="100%" stop-color="rgba(255,255,255,0.04)"/>
    </linearGradient>
    <linearGradient id="h2" x1="0" y1="0" x2="0" y2="1">
      <stop offset="0%" stop-color="rgba(255,255,255,0.08)"/>
      <stop offset="100%" stop-color="rgba(255,255,255,0.02)"/>
    </linearGradient>
  </defs>
  <rect width="900" height="400" fill="url(#bg2)"/>
  <circle cx="150" cy="100" r="200" fill="rgba(255,255,255,0.03)"/>
  <circle cx="700" cy="350" r="250" fill="rgba(255,255,255,0.03)"/>
  <circle cx="450" cy="200" r="120" fill="rgba(255,255,255,0.04)"/>
  <rect x="180" y="180" width="80" height="120" rx="4" fill="url(#h1)" stroke="rgba(255,255,255,0.15)" stroke-width="1"/>
  <rect x="200" y="200" width="16" height="18" rx="2" fill="rgba(255,255,255,0.12)"/>
  <rect x="224" y="200" width="16" height="18" rx="2" fill="rgba(255,255,255,0.12)"/>
  <rect x="200" y="226" width="16" height="18" rx="2" fill="rgba(255,255,255,0.12)"/>
  <rect x="224" y="226" width="16" height="18" rx="2" fill="rgba(255,255,255,0.12)"/>
  <rect x="200" y="252" width="16" height="18" rx="2" fill="rgba(255,255,255,0.12)"/>
  <rect x="224" y="252" width="16" height="18" rx="2" fill="rgba(255,255,255,0.12)"/>
  <rect x="202" y="170" width="32" height="14" rx="2" fill="rgba(255,255,255,0.15)"/>
  <rect x="290" y="150" width="100" height="150" rx="4" fill="url(#h2)" stroke="rgba(255,255,255,0.12)" stroke-width="1"/>
  <rect x="300" y="170" width="18" height="20" rx="2" fill="rgba(255,255,255,0.10)"/>
  <rect x="326" y="170" width="18" height="20" rx="2" fill="rgba(255,255,255,0.10)"/>
  <rect x="352" y="170" width="18" height="20" rx="2" fill="rgba(255,255,255,0.10)"/>
  <rect x="300" y="200" width="18" height="20" rx="2" fill="rgba(255,255,255,0.10)"/>
  <rect x="326" y="200" width="18" height="20" rx="2" fill="rgba(255,255,255,0.10)"/>
  <rect x="352" y="200" width="18" height="20" rx="2" fill="rgba(255,255,255,0.10)"/>
  <rect x="300" y="230" width="18" height="20" rx="2" fill="rgba(255,255,255,0.10)"/>
  <rect x="326" y="230" width="18" height="20" rx="2" fill="rgba(255,255,255,0.10)"/>
  <rect x="352" y="230" width="18" height="20" rx="2" fill="rgba(255,255,255,0.10)"/>
  <rect x="318" y="140" width="40" height="14" rx="2" fill="rgba(255,255,255,0.12)"/>
  <rect x="337" y="120" width="4" height="24" rx="1" fill="rgba(255,255,255,0.15)"/>
  <rect x="327" y="128" width="24" height="4" rx="1" fill="rgba(255,255,255,0.15)"/>
  <rect x="420" y="200" width="80" height="100" rx="4" fill="url(#h1)" stroke="rgba(255,255,255,0.10)" stroke-width="1"/>
  <rect x="435" y="220" width="14" height="16" rx="2" fill="rgba(255,255,255,0.10)"/>
  <rect x="457" y="220" width="14" height="16" rx="2" fill="rgba(255,255,255,0.10)"/>
  <rect x="479" y="220" width="14" height="16" rx="2" fill="rgba(255,255,255,0.10)"/>
  <rect x="435" y="246" width="14" height="16" rx="2" fill="rgba(255,255,255,0.10)"/>
  <rect x="457" y="246" width="14" height="16" rx="2" fill="rgba(255,255,255,0.10)"/>
  <rect x="479" y="246" width="14" height="16" rx="2" fill="rgba(255,255,255,0.10)"/>
  <rect x="444" y="190" width="28" height="12" rx="2" fill="rgba(255,255,255,0.12)"/>
  <rect x="545" y="260" width="6" height="40" rx="2" fill="rgba(255,255,255,0.10)"/>
  <circle cx="548" cy="250" r="22" fill="rgba(255,255,255,0.08)"/>
  <circle cx="548" cy="240" r="16" fill="rgba(255,255,255,0.10)"/>
  <line x1="100" y1="305" x2="700" y2="305" stroke="rgba(255,255,255,0.06)" stroke-width="1"/>
  <path d="M450 305 Q460 350 480 370 L520 370 Q540 350 548 305" fill="none" stroke="rgba(255,255,255,0.06)" stroke-width="1" stroke-dasharray="4,4"/>
  <text x="70" y="100" font-family="Georgia, serif" font-size="60" fill="rgba(255,255,255,0.08)">&ldquo;</text>
  <text x="650" y="80" font-size="12" fill="rgba(255,255,255,0.10)">✦</text>
  <text x="750" y="120" font-size="8" fill="rgba(255,255,255,0.08)">✦</text>
  <text x="550" y="60" font-size="10" fill="rgba(255,255,255,0.08)">✦</text>
  <text x="80" y="200" font-size="8" fill="rgba(255,255,255,0.08)">✦</text>
  <text x="120" y="150" font-size="6" fill="rgba(255,255,255,0.08)">✦</text>
</svg>
